<?xml version="1.0" encoding="UTF-8" standalone="no"?>
<!--********* Copyright (c) 2024 Pareto Softare, LLC DBA Simplemaps.com ***************************************
************* Free for Commercial Use, full terms at  https://simplemaps.com/resources/svg-license ************
************* Attribution is appreciated! https://simplemaps.com *******************************************-->

<svg
   baseprofile="tiny"
   fill="#6f9c76"
   height="1000"
   stroke="#ffffff"
   stroke-linecap="round"
   stroke-linejoin="round"
   stroke-width=".5"
   version="1.2"
   viewbox="0 0 1000 1000"
   width="1000"
   id="svg1"
   sodipodi:docname="dz_gray.svg"
   xml:space="preserve"
   inkscape:version="1.4.2 (ebf0e940d0, 2025-05-08)"
   xmlns:inkscape="http://www.inkscape.org/namespaces/inkscape"
   xmlns:sodipodi="http://sodipodi.sourceforge.net/DTD/sodipodi-0.dtd"
   xmlns="http://www.w3.org/2000/svg"
   xmlns:svg="http://www.w3.org/2000/svg"><defs
     id="defs1" /><sodipodi:namedview
     id="namedview1"
     pagecolor="#ffffff"
     bordercolor="#000000"
     borderopacity="0.25"
     inkscape:showpageshadow="2"
     inkscape:pageopacity="0.0"
     inkscape:pagecheckerboard="0"
     inkscape:deskcolor="#d1d1d1"
     inkscape:zoom="0.79211297"
     inkscape:cx="451.32451"
     inkscape:cy="435.54394"
     inkscape:window-width="1920"
     inkscape:window-height="1011"
     inkscape:window-x="0"
     inkscape:window-y="0"
     inkscape:window-maximized="1"
     inkscape:current-layer="svg1" /><path
     id="DZ"
     style="fill:#131b21;fill-opacity:1;stroke:none;stroke-opacity:1;stroke-width:5.9;stroke-dasharray:none"
     d="M 716.3125 46.761719 L 714.3125 47.261719 L 712.91211 48.0625 L 712.51172 48.462891 L 711.8125 49.261719 L 710.11133 50.5625 L 709.71289 50.962891 L 709.21289 51.962891 L 709.21289 52.863281 L 709.41211 53.761719 L 709.3125 54.863281 L 708.41211 56.261719 L 706.71289 57.261719 L 699.61133 59.962891 L 692.21289 61.662109 L 690.41211 61.662109 L 687.41211 61.0625 L 686.3125 61.162109 L 685.21289 61.462891 L 683.71289 62.962891 L 682.8125 63.363281 L 680.91211 63.962891 L 680.11133 64.363281 L 679.3125 65.0625 L 678.71289 65.863281 L 678.11133 67.863281 L 677.3125 68.5625 L 675.51172 69.162109 L 675.21289 69.462891 L 674.61133 70.162109 L 674.41211 70.261719 L 673.11133 70.261719 L 672.8125 70.363281 L 670.41211 71.0625 L 667.41211 71.5625 L 665.8125 71.462891 L 664.41211 71.0625 L 659.21289 68.462891 L 658.01172 67.462891 L 657.71289 66.5625 L 658.61133 63.962891 L 657.8125 63.962891 L 656.91211 63.761719 L 656.01172 63.5625 L 655.3125 63.162109 L 655.11133 62.962891 L 654.71289 62.261719 L 654.41211 62.0625 L 654.01172 61.962891 L 653.41211 61.962891 L 652.8125 61.863281 L 652.61133 61.462891 L 651.8125 60.662109 L 644.61133 57.662109 L 643.8125 57.462891 L 640.71289 57.863281 L 637.41211 57.5625 L 636.01172 57.662109 L 635.61133 57.662109 L 634.21289 58.261719 L 633.61133 58.0625 L 632.21289 57.962891 L 631.61133 57.662109 L 631.21289 57.363281 L 630.61133 57.0625 L 629.91211 56.863281 L 629.41211 56.761719 L 624.11133 57.462891 L 623.51172 57.363281 L 622.21289 56.863281 L 621.51172 56.761719 L 621.01172 56.962891 L 619.8125 57.761719 L 619.21289 57.863281 L 618.71289 57.761719 L 617.51172 57.261719 L 617.01172 57.162109 L 616.41211 57.261719 L 614.61133 58.261719 L 613.8125 57.863281 L 611.71289 57.5625 L 611.41211 57.5625 L 609.8125 57.5625 L 608.91211 57.863281 L 608.41211 57.863281 L 607.71289 57.761719 L 606.11133 56.761719 L 604.41211 56.462891 L 602.41211 56.662109 L 598.61133 57.863281 L 597.21289 58.863281 L 594.61133 61.5625 L 592.91211 62.462891 L 592.51172 62.462891 L 591.51172 62.363281 L 591.11133 62.462891 L 590.8125 62.662109 L 590.51172 63.0625 L 590.21289 63.363281 L 589.71289 63.5625 L 588.8125 63.662109 L 587.11133 64.162109 L 586.3125 64.261719 L 581.01172 63.962891 L 579.3125 63.5625 L 576.51172 62.162109 L 576.01172 62.261719 L 575.91211 63.662109 L 575.71289 64.462891 L 575.3125 65.261719 L 573.91211 66.0625 L 573.61133 66.0625 L 572.21289 66.0625 L 570.51172 65.5625 L 569.21289 64.462891 L 568.11133 63.162109 L 566.61133 62.261719 L 565.3125 62.0625 L 565.01172 62.0625 L 563.11133 62.462891 L 560.51172 64.261719 L 559.41211 65.462891 L 559.11133 66.162109 L 558.01172 67.761719 L 556.91211 68.761719 L 554.01172 70.261719 L 549.8125 73.5625 L 548.41211 74.0625 L 542.11133 74.462891 L 541.71289 74.363281 L 540.8125 74.162109 L 540.3125 74.0625 L 539.8125 73.962891 L 539.61133 73.5625 L 539.51172 73.0625 L 539.21289 72.5625 L 538.41211 72.0625 L 537.51172 71.761719 L 536.51172 71.863281 L 535.61133 72.162109 L 524.61133 75.462891 L 520.8125 75.962891 L 520.3125 75.962891 L 518.21289 75.462891 L 515.71289 75.662109 L 513.3125 76.363281 L 512.8125 76.363281 L 511.91211 76.0625 L 511.51172 75.962891 L 511.01172 76.0625 L 510.01172 76.662109 L 509.51172 76.761719 L 508.8125 76.761719 L 500.8125 77.261719 L 499.01172 77.761719 L 497.91211 77.863281 L 496.91211 77.5625 L 495.01172 76.863281 L 494.21289 76.761719 L 493.3125 76.863281 L 490.71289 78.162109 L 489.71289 78.462891 L 488.8125 78.5625 L 486.91211 78.5625 L 485.91211 78.761719 L 484.11133 79.662109 L 483.11133 80.0625 L 480.01172 80.0625 L 478.3125 81.162109 L 476.41211 81.662109 L 475.61133 81.962891 L 475.21289 82.462891 L 475.01172 82.962891 L 474.91211 83.363281 L 474.71289 83.863281 L 474.21289 84.363281 L 473.21289 85.0625 L 472.71289 85.5625 L 472.01172 86.0625 L 469.3125 86.761719 L 467.8125 87.863281 L 467.11133 88.162109 L 466.61133 88.261719 L 463.21289 88.462891 L 462.3125 88.662109 L 461.61133 89.261719 L 460.91211 89.962891 L 460.21289 90.662109 L 458.51172 91.162109 L 455.3125 93.363281 L 454.61133 93.962891 L 453.91211 94.462891 L 452.91211 94.662109 L 450.91211 94.761719 L 449.8125 94.962891 L 449.11133 95.462891 L 448.91211 95.863281 L 448.61133 97.162109 L 448.51172 97.662109 L 448.11133 97.962891 L 447.21289 98.5625 L 447.01172 98.962891 L 446.51172 99.261719 L 443.71289 100.26172 L 442.91211 100.86328 L 440.8125 103.0625 L 440.41211 103.36328 L 440.01172 103.5625 L 439.61133 103.86328 L 439.41211 104.16211 L 439.41211 104.86328 L 439.01172 106.0625 L 437.51172 109.46289 L 437.11133 110.86328 L 435.51172 114.0625 L 434.11133 115.46289 L 432.3125 116.76172 L 430.3125 117.76172 L 429.01172 118.0625 L 428.61133 118.16211 L 427.61133 118.0625 L 425.71289 117.16211 L 422.61133 116.5625 L 421.41211 115.96289 L 420.71289 115.16211 L 420.61133 114.5625 L 420.91211 113.86328 L 420.71289 113.26172 L 420.41211 113.0625 L 419.91211 112.96289 L 419.41211 112.66211 L 419.21289 112.0625 L 418.71289 111.66211 L 417.51172 112.0625 L 415.61133 112.96289 L 415.21289 112.96289 L 414.21289 112.96289 L 413.8125 112.96289 L 413.61133 112.86328 L 413.41211 112.66211 L 413.21289 112.5625 L 412.91211 112.5625 L 412.8125 112.86328 L 412.91211 113.16211 L 413.01172 113.5625 L 413.11133 113.66211 L 413.01172 114.26172 L 411.01172 118.5625 L 410.71289 118.96289 L 410.21289 119.26172 L 409.71289 119.16211 L 409.11133 118.96289 L 408.61133 119.0625 L 408.11133 120.5625 L 407.3125 121.26172 L 406.41211 121.66211 L 405.61133 121.86328 L 404.01172 121.96289 L 403.51172 121.86328 L 403.11133 121.46289 L 402.91211 120.96289 L 402.71289 120.5625 L 402.21289 120.46289 L 401.71289 120.36328 L 400.8125 120.0625 L 400.41211 120.0625 L 399.8125 119.86328 L 399.41211 119.46289 L 399.11133 119.16211 L 398.71289 118.86328 L 397.71289 119.16211 L 396.61133 121.0625 L 395.01172 122.0625 L 394.41211 122.26172 L 394.21289 122.0625 L 394.01172 121.5625 L 393.41211 121.5625 L 392.41211 121.86328 L 391.71289 122.26172 L 391.01172 122.96289 L 390.21289 123.46289 L 388.61133 123.86328 L 388.21289 124.16211 L 387.71289 125.0625 L 386.41211 126.26172 L 385.3125 127.0625 L 384.91211 127.46289 L 383.71289 129.0625 L 383.51172 129.26172 L 382.51172 129.36328 L 381.91211 129.5625 L 381.61133 130.16211 L 380.11133 134.16211 L 379.61133 135.0625 L 379.11133 136.0625 L 378.61133 138.5625 L 378.21289 139.66211 L 377.71289 140.36328 L 377.01172 141.0625 L 376.21289 141.66211 L 375.41211 141.86328 L 374.21289 143.36328 L 374.01172 143.5625 L 373.71289 143.66211 L 372.61133 144.0625 L 368.41211 144.46289 L 367.61133 144.76172 L 362.3125 149.26172 L 361.91211 150.26172 L 361.51172 150.5625 L 358.61133 151.46289 L 357.21289 153.16211 L 356.51172 153.66211 L 355.91211 153.86328 L 354.61133 153.76172 L 354.21289 153.86328 L 353.11133 154.66211 L 349.01172 155.86328 L 348.21289 156.5625 L 347.91211 156.66211 L 347.61133 156.5625 L 346.51172 156.26172 L 343.71289 156.66211 L 342.21289 156.26172 L 340.61133 155.5625 L 339.11133 155.26172 L 337.8125 155.86328 L 337.71289 155.66211 L 337.51172 155.5625 L 337.41211 155.5625 L 337.21289 155.46289 L 336.21289 155.86328 L 336.3125 157.96289 L 336.71289 159.46289 L 337.51172 160.46289 L 338.8125 160.96289 L 340.51172 162.16211 L 341.8125 163.46289 L 343.3125 164.46289 L 345.3125 164.66211 L 345.8125 165.0625 L 346.01172 165.66211 L 346.11133 166.46289 L 346.3125 167.16211 L 346.91211 167.86328 L 349.21289 169.36328 L 350.71289 170.76172 L 355.3125 173.76172 L 356.11133 174.5625 L 356.01172 174.96289 L 355.41211 175.36328 L 354.3125 177.76172 L 352.01172 181.36328 L 351.71289 182.26172 L 357.01172 187.76172 L 358.61133 188.26172 L 359.11133 188.5625 L 354.41211 194.26172 L 356.11133 196.26172 L 357.21289 198.66211 L 360.3125 208.46289 L 360.41211 209.16211 L 360.51172 209.86328 L 360.41211 210.96289 L 359.55273 214.61719 C 386.88678 215.23626 417.69275 215.03741 434.83008 213.71875 C 456.75161 212.03195 534.77768 202.05741 539.31641 200.36133 C 541.6227 199.49951 589.13866 191.14525 636.52344 183.26953 C 701.78622 172.42232 743.87457 168.37175 791.11328 168.39453 C 793.18796 168.39553 795.17462 168.40102 797.07812 168.41016 L 797.01172 167.96289 L 796.91211 165.96289 L 797.41211 163.86328 L 798.41211 160.96289 L 799.21289 157.0625 L 799.8125 155.16211 L 801.91211 152.86328 L 804.51172 148.76172 L 805.01172 147.66211 L 803.41211 146.46289 L 801.61133 145.96289 L 799.91211 145.0625 L 798.91211 143.16211 L 798.61133 140.96289 L 798.71289 138.96289 L 799.21289 137.16211 L 800.8125 133.26172 L 800.8125 131.66211 L 800.41211 127.16211 L 800.21289 125.46289 L 799.51172 123.76172 L 797.3125 120.16211 L 796.8125 118.26172 L 796.61133 115.96289 L 796.91211 111.66211 L 797.8125 108.26172 L 798.01172 107.66211 L 798.11133 104.66211 L 799.01172 100.66211 L 799.51172 99.761719 L 799.91211 98.662109 L 799.8125 97.662109 L 799.51172 96.662109 L 799.3125 95.5625 L 799.51172 93.363281 L 801.61133 87.462891 L 801.61133 87.261719 L 801.71289 86.462891 L 801.8125 84.162109 L 801.71289 83.162109 L 801.3125 82.162109 L 800.71289 81.761719 L 799.8125 81.462891 L 799.01172 81.0625 L 795.21289 80.5625 L 793.41211 79.863281 L 793.41211 79.761719 L 793.51172 77.962891 L 794.51172 76.662109 L 795.8125 75.863281 L 798.61133 74.761719 L 803.91211 71.5625 L 804.91211 70.462891 L 805.91211 68.5625 L 806.3125 66.5625 L 805.41211 65.462891 L 803.91211 64.662109 L 804.21289 63.761719 L 805.51172 63.0625 L 807.21289 62.863281 L 808.91211 63.0625 L 810.41211 62.662109 L 813.41211 61.462891 L 814.21289 60.863281 L 814.21289 60.261719 L 812.71289 57.863281 L 812.61133 57.363281 L 812.61133 56.662109 L 812.51172 55.261719 L 807.91211 57.162109 L 806.41211 57.363281 L 804.8125 57.162109 L 804.21289 56.863281 L 803.61133 56.363281 L 803.11133 56.162109 L 802.41211 56.363281 L 801.61133 55.962891 L 800.61133 55.863281 L 798.71289 55.962891 L 797.8125 55.5625 L 797.01172 54.761719 L 796.21289 54.162109 L 790.11133 57.261719 L 789.21289 58.0625 L 788.21289 58.662109 L 782.01172 60.162109 L 780.11133 59.863281 L 777.61133 59.162109 L 776.01172 57.962891 L 776.8125 56.363281 L 776.01172 55.662109 L 776.21289 54.5625 L 776.8125 53.363281 L 777.11133 52.261719 L 776.71289 52.662109 L 775.91211 53.5625 L 775.51172 53.761719 L 773.3125 53.962891 L 773.01172 53.5625 L 772.61133 53.162109 L 772.21289 52.863281 L 771.71289 52.662109 L 771.11133 52.5625 L 770.71289 52.662109 L 770.3125 52.863281 L 769.91211 52.962891 L 767.91211 52.5625 L 766.41211 51.462891 L 765.11133 50.0625 L 763.61133 48.863281 L 762.8125 49.162109 L 762.01172 49.5625 L 761.71289 49.363281 L 761.3125 49.261719 L 760.41211 49.162109 L 759.8125 49.0625 L 759.51172 48.662109 L 759.3125 48.0625 L 759.01172 47.5625 L 759.01172 47.363281 L 758.91211 47.363281 L 758.3125 47.363281 L 757.11133 47.962891 L 756.8125 48.0625 L 756.3125 47.962891 L 755.51172 47.462891 L 755.11133 47.363281 L 754.91211 47.363281 L 754.71289 47.462891 L 754.3125 47.863281 L 754.11133 48.0625 L 753.91211 47.962891 L 753.71289 47.761719 L 753.51172 47.662109 L 753.41211 47.662109 L 753.01172 47.5625 L 752.21289 47.0625 L 751.8125 46.962891 L 751.3125 46.962891 L 750.51172 47.261719 L 750.01172 47.363281 L 750.01172 47.662109 L 751.3125 48.761719 L 753.01172 50.662109 L 753.21289 51.0625 L 753.3125 51.662109 L 753.21289 52.162109 L 752.91211 52.863281 L 752.51172 53.462891 L 752.21289 53.761719 L 751.61133 54.0625 L 749.71289 55.662109 L 749.41211 56.162109 L 748.91211 56.5625 L 747.8125 56.5625 L 746.71289 56.261719 L 746.01172 55.962891 L 744.8125 56.662109 L 740.91211 57.863281 L 739.71289 57.962891 L 738.01172 57.761719 L 736.71289 57.261719 L 736.71289 56.363281 L 736.21289 55.761719 L 735.51172 55.162109 L 734.71289 54.662109 L 734.21289 54.462891 L 727.51172 54.162109 L 726.61133 53.863281 L 725.8125 53.462891 L 725.01172 53.162109 L 724.41211 53.363281 L 723.61133 52.462891 L 723.21289 50.363281 L 722.71289 49.962891 L 722.3125 49.863281 L 722.11133 49.662109 L 721.91211 49.261719 L 721.91211 48.662109 L 721.71289 48.5625 L 720.11133 47.363281 L 718.3125 46.761719 L 716.3125 46.761719 z M 797.07812 168.41016 L 797.71289 172.69141 C 807.81785 172.69678 816.47765 172.98239 822.68359 173.5918 C 833.2123 174.62569 835.34961 174.45879 835.34961 172.60547 C 835.34961 169.64183 825.79229 168.548 797.07812 168.41016 z M 797.71289 172.69141 C 766.27533 172.6747 720.84802 175.36421 691.79492 179.41016 C 664.67016 183.18756 618.34327 190.65095 605.81641 193.26172 C 598.21646 194.84564 588.54251 196.59959 584.32031 197.1582 C 580.09812 197.71678 567.66328 199.87275 556.68555 201.94922 C 537.92123 205.49854 506.46689 210.21144 462.26172 216.09961 C 448.35873 217.95151 428.04892 218.77708 388.56445 219.0957 C 377.82072 219.1824 367.46681 219.22608 358.4668 219.23047 L 358.41211 219.46289 L 358.21289 221.96289 L 358.61133 224.5625 L 359.11133 226.0625 L 359.11133 226.66211 L 358.71289 227.46289 L 358.3125 228.0625 L 357.8125 228.46289 L 357.3125 229.0625 L 357.11133 229.86328 L 357.41211 230.66211 L 358.11133 231.16211 L 359.61133 231.66211 L 360.41211 232.26172 L 360.91211 232.86328 L 362.8125 237.66211 L 363.01172 239.36328 L 362.51172 240.86328 L 361.8125 241.76172 L 361.01172 244.76172 L 360.41211 246.0625 L 359.91211 247.36328 L 359.91211 252.5625 L 360.3125 254.36328 L 362.61133 256.46289 L 363.41211 257.96289 L 364.01172 259.66211 L 364.91211 260.96289 L 366.01172 261.96289 L 367.3125 262.96289 L 368.01172 263.66211 L 368.3125 264.76172 L 368.3125 265.96289 L 368.21289 267.16211 L 368.11133 267.66211 L 367.91211 268.16211 L 367.61133 268.5625 L 367.3125 268.96289 L 365.41211 270.26172 L 371.41211 280.36328 L 372.8125 281.5625 L 375.61133 282.5625 L 387.91211 292.0625 L 388.61133 293.26172 L 386.01172 296.16211 L 384.61133 297.26172 L 383.01172 297.96289 L 381.11133 298.16211 L 380.41211 298.5625 L 379.71289 299.5625 L 379.3125 300.46289 L 378.71289 302.36328 L 378.01172 307.0625 L 377.91211 307.66211 L 377.91211 308.16211 L 377.8125 308.5625 L 377.61133 309.16211 L 377.3125 309.36328 L 376.61133 309.96289 L 376.41211 310.26172 L 376.61133 311.16211 L 377.3125 311.16211 L 378.91211 310.46289 L 379.8125 310.46289 L 380.71289 310.76172 L 381.41211 311.36328 L 381.61133 312.46289 L 380.8125 314.36328 L 379.01172 314.76172 L 375.71289 314.5625 L 375.3125 314.5625 L 374.3125 314.5625 L 372.61133 314.46289 L 370.41211 314.36328 L 367.71289 314.26172 L 364.71289 314.0625 L 361.3125 313.96289 L 357.71289 313.76172 L 353.91211 313.5625 L 350.11133 313.36328 L 346.21289 313.16211 L 342.41211 313.0625 L 338.71289 312.86328 L 335.3125 312.66211 L 332.11133 312.5625 L 329.3125 312.36328 L 323.3125 312.16211 L 315.41211 314.36328 L 307.21289 315.0625 L 304.71289 316.46289 L 307.71289 324.5625 L 309.61133 329.66211 L 301.91211 330.76172 L 292.41211 333.66211 L 279.51172 335.96289 L 277.91211 336.0625 L 276.01172 335.66211 L 273.01172 337.26172 L 272.84375 340.98828 C 303.74613 350.86185 336.49601 359.59469 363.23242 364.87305 C 377.32305 367.65485 378.59741 368.1382 376.10156 369.74414 C 373.18274 371.62222 371.71493 371.46919 352.48438 367.28125 C 328.18062 361.9885 298.60544 353.83861 272.62891 345.73633 L 272.41211 350.5625 L 269.11133 350.76172 L 266.71289 352.5625 L 266.11133 353.26172 L 266.01172 354.16211 L 266.21289 358.0625 L 266.21289 359.26172 L 265.21289 360.86328 L 264.91211 361.86328 L 265.11133 362.76172 L 265.61133 363.16211 L 266.3125 363.26172 L 267.11133 362.86328 L 268.41211 361.66211 L 269.11133 361.36328 L 269.8125 361.5625 L 270.51172 362.16211 L 271.71289 364.16211 L 272.41211 364.86328 L 274.01172 365.66211 L 274.61133 366.16211 L 275.01172 367.0625 L 275.21289 367.96289 L 275.21289 368.96289 L 277.61133 372.86328 L 275.11133 376.76172 L 273.01172 378.96289 L 273.3125 382.16211 L 273.61133 385.36328 L 265.3125 389.66211 L 257.91211 391.46289 L 251.21289 391.86328 L 245.91211 393.26172 L 241.61133 395.76172 L 236.71289 402.16211 L 230.61133 407.16211 L 224.11133 409.96289 L 219.51172 412.46289 L 215.8125 415.36328 L 210.91211 419.5625 L 208.39648 421.3125 C 296.71262 415.13702 425.97473 368.97613 496.35938 315.30859 C 503.15348 310.12817 508.10922 307.38674 509.61719 307.97461 C 512.53822 309.11339 509.18464 312.13006 489.89648 325.71875 C 441.77582 359.62015 368.51007 391.94464 298.43164 410.18945 C 257.04354 420.96479 238.22782 424.05611 204.3125 424.94922 L 206.3125 422.76172 L 208.39453 421.3125 C 194.80591 422.2626 182.18668 422.26657 170.90039 421.20508 C 160.99392 420.27335 147.55187 418.20839 141.02734 416.61523 C 134.50282 415.02205 128.80147 414.08603 128.35938 414.53516 C 125.75983 417.17613 129.52981 418.6853 150.58594 423.43164 C 158.15906 425.13797 169.08169 425.54591 195.87891 425.12305 C 198.79841 425.07698 201.60272 425.02052 204.31055 424.94922 L 202.01172 427.46289 L 198.91211 433.46289 L 194.91211 439.76172 L 190.3125 445.86328 L 186.01172 447.26172 L 182.3125 445.86328 L 180.71289 441.26172 L 175.21289 441.96289 L 170.01172 442.96289 L 164.51172 442.96289 L 158.01172 442.96289 L 151.8125 443.66211 L 145.41211 445.46289 L 139.21289 446.16211 L 135.51172 449.66211 L 127.91211 446.5625 L 122.91211 446.16211 L 119.61133 446.5625 L 114.61133 448.66211 L 110.61133 452.86328 L 105.61133 452.5625 L 104.71289 452.96289 L 103.8125 453.0625 L 102.8125 452.96289 L 100.8125 452.66211 L 98.8125 452.5625 L 97.3125 453.26172 L 94.611328 455.96289 L 93.912109 456.5625 L 91.8125 457.66211 L 89.111328 460.16211 L 84.412109 463.36328 L 80.412109 467.16211 L 79.011719 468.26172 L 74.011719 470.46289 L 71.011719 472.46289 L 68.111328 475.26172 L 67.412109 475.66211 L 65.8125 476.36328 L 65.212891 476.96289 L 63.611328 479.66211 L 63.111328 480.16211 L 61.111328 481.36328 L 59.111328 482.86328 L 53.511719 485.96289 L 52.712891 486.66211 L 52.212891 487.66211 L 52.011719 488.96289 L 52.011719 491.26172 L 52.011719 494.26172 L 52.011719 497.26172 L 52.011719 500.26172 L 52.011719 503.26172 L 52.011719 506.26172 L 52.011719 509.26172 L 52.011719 512.26172 L 52.011719 515.26172 L 52.011719 518.26172 L 52.011719 521.26172 L 52.011719 524.16211 L 52.011719 527.16211 L 52.011719 530.16211 L 52.011719 533.16211 L 52.011719 536.16211 L 52.011719 539.16211 L 52.011719 543.76172 L 52.011719 548.46289 L 52.011719 553.0625 L 52.011719 557.76172 L 60.712891 563.5625 L 69.412109 569.26172 L 78.111328 575.0625 L 86.8125 580.76172 L 95.511719 586.46289 L 104.21289 592.26172 L 113.01172 597.96289 L 121.71289 603.66211 L 130.41211 609.36328 L 139.11133 615.0625 L 147.8125 620.76172 L 156.51172 626.46289 L 163.91211 631.26172 L 171.21289 636.16211 L 178.61133 640.96289 L 184.91211 645.0625 L 186.01172 645.76172 L 191.3125 649.16211 L 199.01172 654.46289 L 206.61133 659.66211 L 214.21289 664.86328 L 221.91211 670.0625 L 225.21289 672.36328 L 228.61133 674.66211 L 232.01172 676.96289 L 235.3125 679.26172 L 240.21289 682.86328 L 243.71289 685.36328 L 247.21289 687.86328 L 250.71289 690.36328 L 254.21289 692.86328 L 257.71289 695.46289 L 261.21289 697.96289 L 264.71289 700.46289 L 268.3125 702.96289 L 271.8125 705.46289 L 275.3125 707.96289 L 278.8125 710.5625 L 282.3125 713.0625 L 285.8125 715.5625 L 289.3125 718.0625 L 292.8125 720.5625 L 296.3125 723.0625 L 300.11133 725.76172 L 303.91211 728.5625 L 307.71289 731.26172 L 311.61133 733.96289 L 315.41211 736.66211 L 319.21289 739.36328 L 323.01172 742.16211 L 326.8125 744.86328 L 330.61133 747.5625 L 334.41211 750.26172 L 338.21289 752.96289 L 342.11133 755.66211 L 345.91211 758.36328 L 349.71289 761.16211 L 353.51172 763.86328 L 357.3125 766.5625 L 361.11133 769.26172 L 364.91211 771.96289 L 368.71289 774.66211 L 372.51172 777.36328 L 376.41211 780.0625 L 380.21289 782.76172 L 384.01172 785.46289 L 387.8125 788.16211 L 391.61133 790.86328 L 395.41211 793.5625 L 399.21289 796.26172 L 403.01172 798.96289 L 406.91211 801.66211 L 410.71289 804.36328 L 414.51172 807.0625 L 418.3125 809.76172 L 422.11133 812.36328 L 425.91211 815.0625 L 429.71289 817.76172 L 433.51172 820.46289 L 434.21289 820.86328 L 437.41211 823.16211 L 441.21289 825.86328 L 445.01172 828.5625 L 448.8125 831.16211 L 452.61133 833.86328 L 456.41211 836.5625 L 460.21289 839.26172 L 464.01172 841.96289 L 467.91211 844.5625 L 471.71289 847.26172 L 475.51172 849.96289 L 479.3125 852.66211 L 484.41211 856.26172 L 485.01172 857.16211 L 485.8125 860.16211 L 485.91211 861.26172 L 485.41211 866.36328 L 484.41211 870.66211 L 484.41211 871.5625 L 484.51172 872.76172 L 484.8125 873.36328 L 485.41211 873.5625 L 486.41211 873.66211 L 487.3125 873.66211 L 489.11133 873.36328 L 490.01172 873.26172 L 491.11133 873.5625 L 491.71289 874.0625 L 492.61133 875.76172 L 493.3125 876.5625 L 494.01172 877.16211 L 495.91211 877.76172 L 497.71289 878.0625 L 498.51172 878.26172 L 499.3125 878.76172 L 500.91211 879.0625 L 502.61133 879.96289 L 505.41211 882.16211 L 506.3125 883.46289 L 506.61133 885.16211 L 506.61133 888.66211 L 507.01172 889.36328 L 512.21289 893.76172 L 513.21289 894.16211 L 514.11133 894.26172 L 514.91211 894.16211 L 515.61133 894.16211 L 516.3125 894.66211 L 516.71289 895.66211 L 516.91211 896.5625 L 517.21289 897.16211 L 518.21289 897.16211 L 518.71289 896.96289 L 519.41211 896.26172 L 520.01172 896.0625 L 520.61133 896.16211 L 520.91211 896.36328 L 521.3125 896.66211 L 521.71289 896.96289 L 524.51172 897.96289 L 525.11133 897.96289 L 526.3125 897.46289 L 528.11133 895.76172 L 529.11133 895.0625 L 530.01172 894.96289 L 530.8125 895.16211 L 531.61133 895.66211 L 534.3125 897.76172 L 535.91211 899.5625 L 537.3125 901.5625 L 539.11133 904.86328 L 539.61133 905.36328 L 540.3125 905.5625 L 541.3125 905.86328 L 542.21289 906.16211 L 543.8125 907.0625 L 544.61133 907.26172 L 545.11133 907.26172 L 549.11133 908.0625 L 551.61133 908.16211 L 563.61133 910.76172 L 569.21289 913.16211 L 571.71289 915.26172 L 572.51172 915.5625 L 574.11133 916.0625 L 574.71289 916.36328 L 575.41211 916.96289 L 575.51172 917.66211 L 574.71289 927.0625 L 574.8125 928.86328 L 575.3125 930.5625 L 575.61133 930.86328 L 575.8125 930.96289 L 576.01172 931.16211 L 576.21289 931.5625 L 576.21289 931.86328 L 575.91211 932.76172 L 575.91211 933.26172 L 576.3125 934.0625 L 576.91211 934.76172 L 577.41211 935.5625 L 577.51172 936.5625 L 577.01172 937.66211 L 576.21289 938.26172 L 575.3125 938.76172 L 574.51172 939.46289 L 574.11133 940.36328 L 573.91211 942.16211 L 573.71289 942.96289 L 572.71289 943.96289 L 572.11133 944.36328 L 571.91211 944.76172 L 571.61133 945.66211 L 570.91211 946.66211 L 570.51172 947.5625 L 570.61133 948.36328 L 571.3125 949.46289 L 572.11133 950.16211 L 573.01172 950.86328 L 573.91211 951.46289 L 575.91211 952.26172 L 578.51172 954.86328 L 579.61133 955.5625 L 580.01172 955.66211 L 580.61133 955.76172 L 581.8125 955.76172 L 585.3125 954.86328 L 590.01172 953.96289 L 597.51172 952.46289 L 600.8125 951.86328 L 605.01172 950.96289 L 612.51172 949.5625 L 620.01172 948.0625 L 628.3125 946.36328 L 636.61133 944.66211 L 644.91211 942.96289 L 653.21289 941.26172 L 657.61133 940.46289 L 667.3125 938.46289 L 676.91211 936.46289 L 681.3125 935.66211 L 687.01172 934.46289 L 688.91211 933.66211 L 690.8125 932.36328 L 694.3125 929.16211 L 697.11133 926.66211 L 699.91211 924.16211 L 702.61133 921.5625 L 705.41211 919.0625 L 708.21289 916.5625 L 711.01172 913.96289 L 713.71289 911.46289 L 716.51172 908.96289 L 719.3125 906.36328 L 722.01172 903.86328 L 724.8125 901.26172 L 727.61133 898.76172 L 730.41211 896.26172 L 733.11133 893.66211 L 735.91211 891.16211 L 738.71289 888.5625 L 741.21289 886.26172 L 742.91211 884.76172 L 746.3125 881.76172 L 749.41211 879.0625 L 752.61133 876.36328 L 755.71289 873.5625 L 758.91211 870.86328 L 763.21289 867.0625 L 769.01172 863.36328 L 772.01172 861.46289 L 775.01172 859.5625 L 778.01172 857.76172 L 781.01172 855.86328 L 784.01172 853.96289 L 786.91211 852.0625 L 789.91211 850.16211 L 792.91211 848.26172 L 795.91211 846.36328 L 798.91211 844.46289 L 801.91211 842.5625 L 804.91211 840.66211 L 807.91211 838.76172 L 810.91211 836.86328 L 813.91211 834.96289 L 816.91211 833.0625 L 819.91211 831.16211 L 822.91211 829.26172 L 825.91211 827.36328 L 828.91211 825.46289 L 831.91211 823.5625 L 834.91211 821.66211 L 837.8125 819.76172 L 840.8125 817.86328 L 843.8125 815.96289 L 846.8125 814.0625 L 849.8125 812.16211 L 852.8125 810.26172 L 855.8125 808.36328 L 858.8125 806.46289 L 861.8125 804.5625 L 864.8125 802.66211 L 867.8125 800.76172 L 870.8125 798.86328 L 873.8125 796.96289 L 876.8125 794.96289 L 879.8125 793.0625 L 882.8125 791.16211 L 885.71289 789.26172 L 888.71289 787.36328 L 891.71289 785.46289 L 894.71289 783.5625 L 897.71289 781.66211 L 900.71289 779.76172 L 903.71289 777.76172 L 906.71289 775.86328 L 909.71289 773.96289 L 912.71289 772.0625 L 915.71289 770.16211 L 918.71289 768.26172 L 921.71289 766.36328 L 924.71289 764.36328 L 927.71289 762.46289 L 930.71289 760.5625 L 933.61133 758.66211 L 936.61133 756.76172 L 939.61133 754.76172 L 942.61133 752.86328 L 945.61133 750.96289 L 948.61133 749.0625 L 951.61133 747.0625 L 954.61133 745.16211 L 957.61133 743.26172 L 960.61133 741.36328 L 957.21289 734.46289 L 954.11133 728.16211 L 949.21289 718.16211 L 949.11133 717.96289 L 946.01172 711.46289 L 942.91211 705.26172 L 941.8125 703.76172 L 940.3125 702.96289 L 938.51172 702.36328 L 924.61133 697.76172 L 914.11133 694.26172 L 905.71289 691.46289 L 904.71289 691.26172 L 903.8125 691.36328 L 898.91211 693.16211 L 893.8125 695.16211 L 892.01172 695.26172 L 891.21289 694.96289 L 885.41211 690.26172 L 884.61133 689.36328 L 884.11133 687.76172 L 883.3125 683.26172 L 882.51172 681.86328 L 875.91211 678.0625 L 875.41211 676.76172 L 875.3125 670.0625 L 875.11133 663.16211 L 874.91211 656.76172 L 874.3125 653.66211 L 872.61133 650.5625 L 865.91211 641.16211 L 860.51172 633.5625 L 853.8125 624.16211 L 847.61133 615.46289 L 846.61133 612.76172 L 847.71289 610.46289 L 848.3125 609.66211 L 849.11133 607.66211 L 850.61133 606.26172 L 851.01172 605.5625 L 851.21289 604.76172 L 851.21289 603.76172 L 866.71289 596.26172 L 867.61133 595.26172 L 869.41211 588.96289 L 869.3125 587.96289 L 868.8125 586.5625 L 868.91211 584.86328 L 870.01172 579.66211 L 869.91211 578.86328 L 869.21289 578.26172 L 867.21289 577.16211 L 866.71289 576.76172 L 866.3125 575.76172 L 865.41211 570.66211 L 861.71289 557.46289 L 861.71289 556.66211 L 861.91211 555.86328 L 862.71289 553.86328 L 863.21289 550.96289 L 863.91211 549.86328 L 865.8125 547.76172 L 866.11133 546.86328 L 865.71289 545.86328 L 865.01172 544.66211 L 864.91211 543.66211 L 866.01172 542.86328 L 867.21289 542.16211 L 868.01172 541.26172 L 870.91211 531.26172 L 871.11133 530.86328 L 871.21289 528.86328 L 864.71289 511.86328 L 864.21289 508.96289 L 866.41211 491.36328 L 867.41211 482.96289 L 867.3125 473.46289 L 866.3125 465.76172 L 862.8125 453.66211 L 859.41211 441.5625 L 854.21289 431.66211 L 848.51172 423.26172 L 846.21289 420.46289 L 843.61133 417.36328 L 842.61133 415.66211 L 852.8125 410.0625 L 851.61133 404.36328 L 850.3125 398.76172 L 849.11133 393.16211 L 847.91211 387.5625 L 846.61133 381.96289 L 845.41211 376.26172 L 844.11133 370.66211 L 842.91211 364.96289 L 841.61133 359.36328 L 840.41211 353.66211 L 839.11133 347.96289 L 837.91211 342.26172 L 836.61133 336.66211 L 835.41211 330.96289 L 834.11133 325.26172 L 832.91211 319.5625 L 832.8125 318.96289 L 832.01172 315.26172 L 831.51172 314.26172 L 830.91211 313.5625 L 823.41211 308.16211 L 814.21289 301.46289 L 807.21289 296.36328 L 801.8125 292.96289 L 800.61133 291.5625 L 800.01172 289.86328 L 799.61133 284.46289 L 799.01172 277.0625 L 798.41211 275.36328 L 794.01172 268.36328 L 789.8125 261.86328 L 788.8125 261.26172 L 787.91211 261.46289 L 787.01172 261.46289 L 786.11133 261.16211 L 785.21289 260.66211 L 780.3125 257.16211 L 778.71289 256.5625 L 776.61133 256.36328 L 775.01172 255.96289 L 773.91211 254.66211 L 773.21289 252.16211 L 773.11133 245.26172 L 773.11133 244.96289 L 772.51172 242.96289 L 769.11133 237.0625 L 766.3125 232.16211 L 765.91211 230.76172 L 765.51172 228.0625 L 764.21289 225.5625 L 763.91211 224.66211 L 763.3125 221.76172 L 763.11133 219.66211 L 764.01172 214.36328 L 764.11133 210.46289 L 764.71289 209.0625 L 765.71289 208.0625 L 767.51172 206.16211 L 768.61133 204.76172 L 769.8125 203.46289 L 771.51172 202.66211 L 774.3125 202.16211 L 775.11133 201.76172 L 775.71289 201.0625 L 776.01172 200.16211 L 777.71289 193.86328 L 778.61133 192.0625 L 780.3125 190.76172 L 784.11133 189.0625 L 785.91211 187.76172 L 790.11133 185.86328 L 790.51172 185.46289 L 792.3125 183.86328 L 793.3125 183.26172 L 793.71289 182.86328 L 793.91211 182.5625 L 794.21289 181.5625 L 794.51172 181.16211 L 796.01172 180.16211 L 796.41211 179.5625 L 795.21289 177.76172 L 795.41211 176.96289 L 795.91211 176.16211 L 797.3125 174.66211 L 797.41211 174.5625 L 797.71289 174.0625 L 797.8125 173.36328 L 797.71289 172.69141 z M 272.62891 345.73633 L 272.84375 340.98828 C 256.22895 335.67971 240.14836 330.04252 225.82227 324.43359 C 216.95783 320.96301 209.52968 318.12305 209.31641 318.12305 C 209.10312 318.12305 208.92969 319.10201 208.92969 320.29883 C 208.92969 323.89912 237.4857 334.77489 272.62891 345.73633 z M 358.4668 219.23047 L 359.55273 214.61719 C 336.37476 214.09224 315.69297 212.98046 307.95898 211.4668 C 273.79465 204.78029 253.578 195.44438 245.60742 182.67578 C 240.32387 174.2117 239.96972 167.32208 244.31836 157.58398 C 247.66888 150.081 246.23848 145.51662 242.42188 151.5332 C 230.48527 170.35033 237.72207 189.86531 261.09961 201.90039 C 274.31278 208.70271 302.28822 215.73606 328.68555 218.89258 C 330.58186 219.11934 342.35459 219.23832 358.4668 219.23047 z M 270.59961 96.960938 C 270.32152 96.956325 270.06334 97.003671 269.82227 97.097656 C 267.45577 98.020226 267.65065 99.038547 271.77539 107.33984 L 276.35547 116.55859 L 266.07227 117.67578 L 255.78906 118.79492 L 251.00391 113.17188 C 243.58739 104.45552 239.14267 106.24142 243.76172 116.08203 C 245.9001 120.63773 246.07795 122.59094 244.68945 126.32812 C 243.15462 130.45919 243.28788 130.94531 245.95898 130.94531 C 247.601 130.94531 249.34207 129.89232 249.82812 128.60547 C 250.52201 126.76843 253.64483 126.26562 264.36523 126.26562 C 271.87484 126.26563 278.01953 126.52853 278.01953 126.84961 C 278.01953 127.17071 276.98345 130.41715 275.7168 134.06445 C 274.45013 137.71175 273.41406 141.31051 273.41406 142.06055 C 273.41406 142.81059 275.05619 143.42383 277.06445 143.42383 C 279.76186 143.42383 282.23679 141.1833 286.5332 134.8457 L 292.34766 126.26562 L 302.5332 126.26562 C 312.36614 126.26563 316.4043 124.66008 316.4043 120.74609 C 316.4043 117.66757 308.93452 115.34838 299.05859 115.35938 L 289.53516 115.36914 L 280.99219 105.7207 C 275.50637 99.524726 272.54622 96.993225 270.59961 96.960938 z M 902.15625 136.87695 C 901.58463 136.86248 900.98021 136.88986 900.3125 136.93555 C 897.15801 137.15137 894.34669 137.56097 894.06641 137.8457 C 893.78616 138.13045 897.04138 143.88882 901.30078 150.64258 C 905.56017 157.39638 909.04678 163.66788 909.04688 164.58008 C 909.047 165.53691 902.7125 166.86622 894.07617 167.7207 L 879.10742 169.20117 L 870.9082 161.6582 C 865.88246 157.03545 861.82147 154.46262 860.41797 155.00977 C 859.15861 155.50073 857.1711 155.90234 856 155.90234 C 853.36293 155.90234 854.51112 159.6222 859.13086 166.04102 C 864.39039 173.34878 864.99592 178.30547 861.38477 184.52344 C 859.45687 187.84305 858.83236 190.31804 859.77539 190.91016 C 862.11171 192.37709 871.76816 187.75623 874.01953 184.09375 C 875.86919 181.08477 877.42858 180.85938 896.36523 180.85938 C 911.67663 180.85937 916.69956 181.34214 916.63086 182.80859 C 916.58065 183.88095 914.58607 191.07581 912.19727 198.79688 C 909.80847 206.51795 908.07115 213.21022 908.33594 213.66797 C 908.60072 214.1257 911.66298 214.22384 915.14258 213.88672 C 921.28839 213.29128 921.7595 212.82266 931.62891 197.45703 C 937.21668 188.75745 942.42097 181.21412 943.19336 180.69336 C 943.96575 180.17263 950.71827 179.342 958.19922 178.84961 C 973.82734 177.82098 978.54097 175.94962 977.8457 171.04492 C 977.04124 165.36993 971.16703 163.74951 951.29883 163.72461 L 932.9043 163.70117 L 919.47656 150.12109 C 908.53293 139.05452 906.15758 136.97829 902.15625 136.87695 z M 569.60547 219.85547 C 577.08171 219.85547 577.30754 220.00573 593.63672 235.84375 L 610.12109 251.83008 L 631.05664 251.83008 C 648.66293 251.83008 652.66669 252.28032 656.23828 254.65234 C 669.17904 263.2468 657.22362 271.32812 631.57031 271.32812 L 619.5332 271.32812 L 606.88672 290.82617 L 594.24023 310.32422 L 586.49023 310.32422 C 579.16658 310.32422 578.79843 310.13114 579.78906 306.81445 C 580.36558 304.88418 582.88273 296.74771 585.38281 288.73438 C 587.88292 280.72105 589.67485 273.9083 589.36523 273.59375 C 589.05563 273.2792 578.24293 272.9245 565.33789 272.80664 L 541.875 272.59375 L 536.49414 278.98047 C 532.14095 284.14724 530.10773 285.36719 525.85742 285.36719 C 519.49965 285.36719 519.30782 283.81704 524.39648 273.60547 C 526.48227 269.41982 527.60881 265.61603 526.90039 265.15234 C 526.19199 264.68863 523.63241 260.44891 521.21094 255.73047 C 513.77723 241.2453 513.80602 241.68887 520.26953 241.7168 C 525.04259 241.7374 527.48633 243.15397 535.18945 250.36914 C 543.87521 258.50475 544.75244 258.94732 550.54297 258.10938 C 553.92072 257.62059 562.08367 256.60775 568.68164 255.85742 C 575.27962 255.10709 581.01301 254.15369 581.42188 253.73828 C 581.83077 253.32288 577.64043 245.90023 572.11133 237.24414 C 566.58225 228.58803 562.05859 221.13362 562.05859 220.67969 C 562.05859 220.22575 565.45456 219.85547 569.60547 219.85547 z M 69.894531 353.99805 C 66.986337 353.99805 64.607422 354.36451 64.607422 354.8125 C 64.607422 355.2605 67.414598 361.29951 70.845703 368.23242 C 74.27684 375.16532 76.845219 381.07984 76.554688 381.375 C 76.264178 381.67017 69.82975 382.36849 62.255859 382.92773 L 48.486328 383.94531 L 42.599609 377.55078 C 38.766606 373.3875 35.382582 371.15625 32.900391 371.15625 C 28.611008 371.15625 28.800312 373.29692 34.029297 383.83008 C 36.767921 389.34671 36.762442 389.62834 33.789062 395.52734 L 30.742188 401.57227 L 34.216797 402.11914 C 36.635931 402.49957 38.916887 401.1735 41.728516 397.75195 L 45.767578 392.83789 L 63.248047 394.08594 C 83.395691 395.52451 82.72368 394.54666 75.341797 411.66797 C 72.94783 417.22045 71.320633 422.30929 71.726562 422.97656 C 72.132492 423.64385 74.499144 424.18945 76.984375 424.18945 C 80.762337 424.18945 82.640626 422.59231 88.451172 414.44141 C 103.65339 393.11606 101.82809 394.55469 113.70312 394.55469 C 127.30207 394.55469 135.10091 391.59816 135.20898 386.4043 C 135.27993 382.99494 125.28847 380.50871 111.12695 380.41211 L 96.082031 380.31055 L 85.632812 367.1543 C 76.181069 355.25486 74.67721 353.99805 69.894531 353.99805 z M 416.69336 378.26562 C 421.22066 378.07005 432.86141 379.6001 451.73047 382.86133 C 509.40987 392.83035 553.66596 399.71666 617.33008 408.63086 C 738.8545 425.64662 783.65868 438.71135 794.80078 460.37891 C 798.03446 466.66731 797.5373 478.25569 793.76953 484.44922 C 790.27467 490.19414 789.92135 490.44245 788.52344 488.14453 C 788.00247 487.28812 788.65314 485.02733 789.96875 483.11914 C 794.04021 477.2137 793.04984 466.18156 787.78711 458.80078 C 776.20992 442.56423 725.8485 428.07117 640.36133 416.375 C 591.41396 409.67814 485.54598 393.83533 473.77539 391.44531 C 469.55318 390.58798 455.38958 388.06541 442.30078 385.83984 C 429.21196 383.61426 417.46782 381.20102 416.20117 380.47852 C 413.82158 379.12122 413.97698 378.38297 416.69336 378.26562 z M 755.61328 488.17188 C 757.53023 488.21227 756.97939 489.5092 754.97852 495.35547 C 753.84055 498.68045 752.44592 503.3322 751.87891 505.69141 L 750.84766 509.98047 L 762.125 509.98047 C 772.16833 509.98047 773.7943 509.55312 777.00586 506.08008 C 778.98912 503.93534 781.52897 502.18164 782.64844 502.18164 C 785.10253 502.18164 785.09638 502.07491 783.01367 508.14453 C 781.59549 512.27758 781.82723 513.7029 784.54883 517.58594 C 786.31207 520.10165 787.75391 522.92921 787.75391 523.86914 C 787.75391 526.95523 782.62967 525.65795 778.34375 521.48633 C 774.38058 517.62885 773.56153 517.45634 764.05859 518.49023 C 758.51376 519.09351 753.98755 520.05768 754.00195 520.63281 C 754.01575 521.20795 756.0775 525.18904 758.58203 529.47852 C 764.16351 539.03795 764.19733 539.61719 759.17773 539.61719 C 756.2781 539.61719 753.02626 537.24045 747.43359 531.03711 L 739.69922 522.45898 L 729.08008 522.45898 C 718.70502 522.45898 712.52148 520.70496 712.52148 517.76367 C 712.52148 515.07317 721.50263 511.53906 728.33984 511.53906 C 735.08371 511.53906 735.11218 511.51521 741.86133 500.23047 C 747.29131 491.15134 749.45497 488.82594 752.83594 488.42969 C 754.06117 488.28609 754.9743 488.15841 755.61328 488.17188 z " /><g
     id="points"
     transform="translate(2.5248924,-103.52059)"
     style="fill:#2f2f2f;fill-opacity:1"><circle
       class="19.881480055145836|-7.649822919386468"
       cx="91.099998"
       cy="912.29999"
       id="0"
       r="0"
       style="fill:#2f2f2f;fill-opacity:1" /><circle
       class="27.128831407873598|2.6758000487322517"
       cx="545.40002"
       cy="564.20001"
       id="1"
       r="0"
       style="fill:#2f2f2f;fill-opacity:1" /><circle
       class="36.18802059878331|10.936298423227228"
       cx="908.90002"
       cy="95.099998"
       id="2"
       r="0"
       style="fill:#2f2f2f;fill-opacity:1" /></g><g
     id="label_points"
     transform="translate(2.5248924,-103.52059)"
     style="fill:#2f2f2f;fill-opacity:1"><circle
       class="Algeria"
       cx="551.29999"
       cy="551"
       id="circle1"
       r="0"
       style="fill:#2f2f2f;fill-opacity:1" /></g></svg>
